<svg width="44" height="44" viewBox="0 0 44 44" fill="none" xmlns="http://www.w3.org/2000/svg">
<path d="M22.0003 3.66663C32.1255 3.66663 40.3337 11.8747 40.3337 22C40.3337 23.3321 40.1916 24.631 39.9217 25.8824L36.6543 22.615C36.6628 22.411 36.667 22.206 36.667 22C36.667 13.8998 30.1005 7.33329 22.0003 7.33329C13.9001 7.33329 7.33366 13.8998 7.33366 22C7.33366 30.1002 13.9001 36.6666 22.0003 36.6666C24.3879 36.6666 26.6421 36.0961 28.6344 35.0841C28.9184 35.5351 29.2567 35.9606 29.6483 36.352C30.2025 36.9062 30.8232 37.3532 31.4849 37.6929C28.718 39.3684 25.4719 40.3333 22.0003 40.3333C11.8751 40.3333 3.66699 32.1251 3.66699 22C3.66699 11.8747 11.8751 3.66663 22.0003 3.66663ZM34.8337 25.9812L37.4264 28.5739C38.8584 30.0058 38.8584 32.3275 37.4264 33.7593C35.9945 35.1913 33.6728 35.1913 32.241 33.7593C30.874 32.3926 30.8121 30.2151 32.0545 28.7745L32.241 28.5739L34.8337 25.9812ZM22.0003 27.5C24.6887 27.5 27.1067 28.6572 28.7835 30.5008L27.051 32.0761C25.6028 31.5012 23.8667 31.1666 22.0003 31.1666C20.134 31.1666 18.3978 31.5012 16.9496 32.0761L15.2172 30.5008C16.8939 28.6572 19.3119 27.5 22.0003 27.5ZM15.5837 18.3333C17.1024 18.3333 18.3337 19.5646 18.3337 21.0833C18.3337 22.602 17.1024 23.8333 15.5837 23.8333C14.0649 23.8333 12.8337 22.602 12.8337 21.0833C12.8337 19.5646 14.0649 18.3333 15.5837 18.3333ZM28.417 18.3333C29.9357 18.3333 31.167 19.5646 31.167 21.0833C31.167 22.602 29.9357 23.8333 28.417 23.8333C26.8983 23.8333 25.667 22.602 25.667 21.0833C25.667 19.5646 26.8983 18.3333 28.417 18.3333Z" fill="white"/>
</svg>
