<svg width="28" height="28" viewBox="0 0 28 28" fill="none" xmlns="http://www.w3.org/2000/svg">
<path d="M16.8562 17.9467C16.2314 18.835 15.5507 19.6826 14.818 20.4842C16.7687 22.3777 18.584 23.2643 19.5897 22.6822C20.5977 22.1012 20.7365 20.0863 20.0727 17.4508C19.0775 17.6725 17.996 17.8405 16.8562 17.9467ZM15.3278 18.0482C14.4431 18.0848 13.5572 18.0848 12.6725 18.0482C13.1123 18.6222 13.5568 19.1542 14.0002 19.6395C14.4435 19.1542 14.8868 18.6222 15.3278 18.0482ZM21.2078 8.83849C24.317 9.72983 26.347 11.2115 26.347 13C26.347 14.7885 24.317 16.2702 21.2078 17.1615C21.9895 20.2998 21.7223 22.7988 20.1742 23.6925C18.6248 24.5873 16.3265 23.57 14.0002 21.3242C11.6738 23.57 9.37549 24.5873 7.82615 23.6925C6.27799 22.7988 6.00965 20.2998 6.79249 17.1615C3.68332 16.2702 1.65332 14.7885 1.65332 13C1.65332 11.2115 3.68332 9.72983 6.79249 8.83849C6.01082 5.70016 6.27799 3.20116 7.82615 2.30749C9.37549 1.41266 11.6738 2.42999 14.0002 4.67583C16.3265 2.42999 18.6248 1.41266 20.1742 2.30749C21.7223 3.20116 21.9907 5.70016 21.2078 8.83849ZM20.0727 8.54916C20.7377 5.91249 20.5977 3.89883 19.5908 3.31783C18.584 2.73566 16.7687 3.62233 14.8192 5.51583C15.5087 6.26599 16.1947 7.11883 16.8562 8.05333C17.9972 8.15833 19.0775 8.32633 20.0727 8.54916ZM7.92765 17.4508C7.26265 20.0875 7.40265 22.1012 8.40949 22.6822C9.41632 23.2643 11.2317 22.3777 13.1812 20.4842C12.4489 19.6825 11.7685 18.835 11.1442 17.9467C10.0625 17.85 8.98818 17.6844 7.92765 17.4508ZM12.6725 7.95183C13.5572 7.9152 14.4431 7.9152 15.3278 7.95183C14.9084 7.40287 14.4654 6.87231 14.0002 6.36166C13.5568 6.84699 13.1135 7.37783 12.6725 7.95183ZM11.1442 8.05333C11.7692 7.16496 12.4504 6.3174 13.1835 5.51583C11.2317 3.62233 9.41515 2.73566 8.41065 3.31783C7.40265 3.89883 7.26382 5.91366 7.92765 8.54916C8.92282 8.32749 10.0043 8.15949 11.1442 8.05333ZM16.2098 16.8267C17.0403 15.6079 17.7785 14.3288 18.4183 13C17.7785 11.6712 17.0403 10.3921 16.2098 9.17333C14.7388 9.06319 13.2615 9.06319 11.7905 9.17333C10.96 10.3921 10.2218 11.6712 9.58199 13C10.2218 14.3288 10.96 15.6079 11.7905 16.8267C13.2615 16.9368 14.7388 16.9368 16.2098 16.8267ZM17.7078 16.6738C18.4253 16.5805 19.1078 16.4603 19.7495 16.3192C19.5397 15.6609 19.3014 15.012 19.0355 14.3743C18.6248 15.1584 18.1819 15.9252 17.7078 16.6727V16.6738ZM10.2925 9.32499C9.57499 9.41833 8.89249 9.53849 8.25082 9.67966C8.44915 10.305 8.68715 10.956 8.96482 11.6245C9.3755 10.8404 9.81843 10.0725 10.2925 9.32499ZM8.25082 16.318C8.89249 16.4592 9.57499 16.5782 10.2925 16.6727C9.81843 15.9252 9.3755 15.1584 8.96482 14.3743C8.68715 15.0417 8.44915 15.6927 8.25082 16.318ZM7.10982 16.0322C7.41432 15.0592 7.80982 14.0395 8.28815 12.9988C7.80982 11.9582 7.41432 10.9385 7.10982 9.96549C4.49415 10.7087 2.81999 11.8368 2.81999 12.9988C2.81999 14.1608 4.49415 15.289 7.10982 16.0322ZM19.7495 9.67966C19.1078 9.53849 18.4253 9.41949 17.7078 9.32499C18.1819 10.0725 18.6248 10.8392 19.0355 11.6233C19.3132 10.956 19.5512 10.305 19.7495 9.67966ZM20.8905 9.96549C20.586 10.9385 20.1905 11.9582 19.7122 12.9988C20.1905 14.0395 20.586 15.0592 20.8905 16.0322C23.5062 15.289 25.1803 14.1608 25.1803 12.9988C25.1803 11.8368 23.5062 10.7087 20.8905 9.96549ZM14.0002 15.1933C13.7121 15.1933 13.4269 15.1366 13.1608 15.0264C12.8947 14.9161 12.6529 14.7546 12.4492 14.5509C12.2456 14.3472 12.084 14.1055 11.9738 13.8393C11.8636 13.5732 11.8068 13.288 11.8068 13C11.8068 12.712 11.8636 12.4267 11.9738 12.1606C12.084 11.8945 12.2456 11.6527 12.4492 11.4491C12.6529 11.2454 12.8947 11.0838 13.1608 10.9736C13.4269 10.8634 13.7121 10.8067 14.0002 10.8067C14.5819 10.8067 15.1397 11.0377 15.5511 11.4491C15.9624 11.8604 16.1935 12.4183 16.1935 13C16.1935 13.5817 15.9624 14.1396 15.5511 14.5509C15.1397 14.9622 14.5819 15.1933 14.0002 15.1933Z" fill="white"/>
</svg>
